<?xml version="1.0" encoding="UTF-8"?>
<svg width="80px" height="80px" viewBox="0 0 80 80" version="1.1" xmlns="http://www.w3.org/2000/svg" xmlns:xlink="http://www.w3.org/1999/xlink">
    <title>Artboard Copy 3</title>
    <defs>
        <polygon id="path-1" points="0 0 75 0 75 72 0 72"></polygon>
        <linearGradient x1="28.0051165%" y1="70.8964649%" x2="67.0225861%" y2="34.3017146%" id="linearGradient-3">
            <stop stop-color="#15B0F3" offset="0%"></stop>
            <stop stop-color="#0BD00C" offset="100%"></stop>
        </linearGradient>
    </defs>
    <g id="Artboard-Copy-3" stroke="none" stroke-width="1" fill="none" fill-rule="evenodd">
        <g id="Group-3" transform="translate(3.000000, 4.000000)">
            <mask id="mask-2" fill="white">
                <use xlink:href="#path-1"></use>
            </mask>
            <g id="Clip-2"></g>
            <path d="M27.1082611,0.363835113 C48.0347931,-2.16374262 72.3403275,8.63520656 74.7405029,27.863092 C77.1404798,47.0909774 62.4720688,54.6292918 48.1496165,61.0579164 C33.827065,67.4865411 31.5243456,70.3110904 19.0992078,71.8117634 C6.67407011,73.3125341 1.40112748,65.6363749 0.201089423,56.0223834 C-0.998849396,46.4084895 2.58498905,3.32574111 27.1082611,0.363835113" id="Fill-1" fill="url(#linearGradient-3)" mask="url(#mask-2)"></path>
        </g>
        <g id="Smart" transform="translate(12.375825, 21.000000)" fill="#000000" fill-rule="nonzero" stroke="#000000" stroke-width="0.2">
            <path d="M5.4571968,-0.1 C7.45892008,-0.1 8.87284821,0.311925635 10.09702,0.948554742 L10.09702,4.4427979 C8.77927746,3.55895842 7.31386071,3.0187001 5.6218536,3.0187001 C5.08682996,3.0187001 4.61633045,3.08835684 4.28474119,3.24685521 C3.87054952,4.08975285 3.89420864,4.31258902 4.05714781,4.45864105 C4.25431529,4.63537395 4.558185,4.75106013 4.94322375,4.86332146 L7.13175407,5.47805572 C8.46994079,5.86819792 9.44191182,6.3944959 10.08114,7.08232785 C10.7277916,7.77814775 11.037916,8.63973942 11.037916,9.6997402 C11.037916,11.1126437 10.4305285,12.1543638 9.44008236,12.8611932 C8.34414879,13.6433034 6.77300784,14.013202 5.0337936,14.013202 C3.05334233,14.013202 1.26977673,13.4852339 0.2057912,12.8742029 L0.2057912,9.38364792 C1.44389564,10.2119901 3.26743558,10.8725568 4.939704,10.8725568 C5.57534765,10.8725568 6.16445449,10.8057279 6.56875577,10.6111768 C7.06101449,9.64826798 6.9976596,9.44626393 6.83747364,9.29681919 C6.63713681,9.10991587 6.32359798,8.98804646 5.9250237,8.85262242 L3.7373617,8.26008298 C2.45917174,7.9127583 1.4792597,7.43649212 0.830262382,6.74397548 C0.2217033,6.09460871 -0.1,5.25507968 -0.1,4.14762646 C-0.1,2.82433939 0.476651129,1.78834763 1.42220527,1.0696993 C2.42933773,0.304249671 3.85908149,-0.1 5.4571968,-0.1 Z" id="Path"></path>
            <path d="M25.0043112,3.49899862 C26.1380639,3.49899862 27.0534788,3.86103352 27.6875879,4.50321905 C28.3245224,5.14826605 28.679716,6.07838253 28.679716,7.21994236 L28.679716,13.7937509 L24.7866992,13.7937509 L24.7866992,8.05385668 C24.7866992,7.64791334 24.6954268,7.30089146 24.4950625,7.06264862 C24.3150722,6.84863156 24.0468568,6.7274243 23.6870568,6.7274243 C23.3857116,6.7274243 23.1068022,6.81707806 22.8829696,6.98989754 C22.6711683,7.15342778 22.5093576,7.39104019 22.4227576,7.69456755 L22.4227576,13.7937509 L18.5532632,13.7937509 L18.5532632,8.05385668 C18.5532632,7.64791334 18.4619908,7.30089146 18.2616265,7.06264862 C18.0816362,6.84863156 17.8134208,6.7274243 17.4536208,6.7274243 C17.1494465,6.7274243 16.8622955,6.81864343 16.6346177,6.99443174 C16.4236713,7.15730196 16.2645118,7.39267281 16.1893216,7.69291656 L16.1893216,13.7937509 L12.2963048,13.7937509 L12.2963048,3.71844976 L16.1893216,3.71844976 L16.1893216,4.38641646 C16.7730213,3.85287268 17.724942,3.49899862 18.81792,3.49899862 C20.1457348,3.49899862 21.089809,3.96270247 21.739631,4.64216228 C22.3967918,4.04176996 23.4769848,3.49899862 25.0043112,3.49899862 Z" id="Path"></path>
            <path d="M34.930764,3.49899862 C36.5341193,3.49899862 37.7892512,3.85994686 38.6420661,4.55279187 C39.4907771,5.24230274 39.9469456,6.260829 39.9469456,7.59300929 L39.9469456,13.7937509 L36.1950632,13.7937509 C35.7373605,13.687525 34.8177871,13.9693118 33.8016888,13.9693118 C32.6792621,13.9693118 31.6440894,13.6584594 30.9121646,13.0583828 C30.2401181,12.507398 29.8204928,11.7132986 29.8204928,10.6872703 C29.8204928,9.7195329 30.263501,8.92011458 30.9940923,8.35670962 C31.7445135,7.77801264 32.8009798,7.44911907 33.989868,7.44911907 C34.8055601,7.44911907 35.6962655,7.6658208 36.1879642,7.91943678 C36.1523801,7.48646638 35.9827503,7.15473683 35.6729645,6.92593469 C35.309795,6.65770435 34.7630542,6.52991827 34.0369128,6.52991827 C32.9826006,6.52991827 31.902084,6.79602526 31.0436576,7.30387586 L31.0436576,4.30602495 C31.9191384,3.84792958 33.3750191,3.49899862 34.930764,3.49899862 Z M34.813152,9.77779508 C34.4396567,9.77779508 34.0650856,9.8542706 33.8003031,10.0255962 C33.5923797,10.1601315 33.4547632,10.3552941 33.4547632,10.621435 C33.4547632,10.8966574 33.5914685,11.0974829 33.7994507,11.2351859 C34.0641207,11.4104213 34.4392141,11.48702 34.813152,11.48702 C35.4163818,11.48702 35.964586,11.2592659 36.1950632,10.9002634 L36.1950632,10.3851742 C36.0855956,10.204616 35.9019096,10.0583883 35.67536,9.95438649 C35.4277705,9.84072602 35.1288823,9.77779508 34.813152,9.77779508 Z" id="Shape"></path>
            <path d="M47.8445616,3.49899862 C48.3978187,3.49899862 48.8250896,3.61914272 48.9560248,3.71957046 L48.9560248,7.25451658 C48.4842079,6.98473392 47.9618331,6.88104009 47.3270688,6.88104009 C46.8448101,6.88104009 46.4399129,6.97805819 46.1331018,7.1605349 C45.8373591,7.33642866 45.6348058,7.59213608 45.5452768,7.91365067 L45.5452768,13.7937509 L41.65226,13.7937509 L41.65226,3.71844976 L45.5452768,3.71844976 L45.5452768,4.42804234 C46.0821227,3.86392234 46.8653977,3.49899862 47.8445616,3.49899862 Z" id="Path"></path>
            <path d="M55.3305952,0.997255678 L55.3305952,3.71844976 L57.4005664,3.71844976 L57.4005664,6.59575362 L55.3305952,6.59575362 L55.3305952,13.7937509 L51.4611008,13.7937509 L51.4611008,6.59575362 L49.6263536,6.59575362 L49.6263536,3.71844976 L51.4611008,3.71844976 L51.4611008,0.997255678 L55.3305952,0.997255678 Z" id="Path"></path>
        </g>
        <g id="Pakker" transform="translate(2.000000, 36.245858)" fill="#000000" fill-rule="nonzero" stroke="#000000" stroke-width="0.2">
            <path d="M6.2636112,0.683707345 C7.87163541,0.683707345 9.21256783,1.11950247 10.1418767,1.94548337 C11.0388268,2.74270329 11.5561216,3.90416866 11.5561216,5.39887282 C11.5561216,6.88385629 11.0381521,8.04051918 10.1399647,8.83507327 C9.21075685,9.65706861 7.87054481,10.0922687 6.2636112,10.0922687 L3.8022832,10.0922687 L3.8022832,14.2502715 L-0.1,14.2502715 L-0.1,0.683707345 L6.2636112,0.683707345 Z M5.8677696,3.82260989 L3.8022832,3.82260989 L3.8022832,6.97513576 L5.8677696,6.97513576 C6.48805156,6.97513576 6.94588007,6.83008823 7.25187277,6.56784673 C7.57517626,6.29076956 7.7236928,5.88463394 7.7236928,5.39887282 C7.7236928,4.90514113 7.57711009,4.50075073 7.25714172,4.22653183 C6.95107692,3.96422854 6.49150151,3.82260989 5.8677696,3.82260989 Z" id="Shape"></path>
            <path d="M16.3704608,4.03623321 C17.9579466,4.03623321 19.2006271,4.39440579 20.0449926,5.08184532 C20.8852853,5.76596898 21.336984,6.7765217 21.336984,8.09830924 L21.336984,14.2502715 L17.6209792,14.2502715 C17.1671854,14.1454625 16.2576825,14.4244287 15.2527904,14.4244287 C14.141414,14.4244287 13.1164466,14.1159645 12.3917324,13.5205358 C11.726318,12.9738282 11.3107984,12.1859042 11.3107984,11.1678297 C11.3107984,10.207584 11.7494652,9.414371 12.4728553,8.85533294 C13.2158713,8.28112785 14.2619062,7.95476994 15.4390688,7.95476994 C16.2458134,7.95476994 17.1266431,8.16932621 17.613826,8.42061857 C17.5783458,7.99212023 17.4106039,7.66372761 17.1044825,7.4371511 C16.7451327,7.17117744 16.2041232,7.04451787 15.4856384,7.04451787 C14.4415294,7.04451787 13.3714512,7.30877217 12.521608,7.81307997 L12.521608,4.83718211 C13.3883159,4.38256492 14.8299315,4.03623321 16.3704608,4.03623321 Z M16.2540368,10.2664258 C15.884554,10.2664258 15.513992,10.3422157 15.2520487,10.5120647 C15.046441,10.6453846 14.9103792,10.8387943 14.9103792,11.1025207 C14.9103792,11.3752562 15.0455399,11.5742872 15.2512141,11.7107517 C15.5130438,11.8844753 15.8841197,11.9603853 16.2540368,11.9603853 C16.8506472,11.9603853 17.3929189,11.7347375 17.6209792,11.3789377 L17.6209792,10.8683218 C17.5126951,10.6894293 17.3310476,10.5445518 17.1070409,10.4414987 C16.8620945,10.3288124 16.5663956,10.2664258 16.2540368,10.2664258 Z" id="Shape"></path>
            <path d="M26.8787664,-0.1 L26.8787664,7.77116851 L29.7113582,4.2539297 L34.1681747,4.2539297 L30.1902979,8.88602082 L34.2445515,14.2502715 L29.8950319,14.2502715 L26.8787664,10.1654246 L26.8787664,14.2502715 L23.0230528,14.2502715 L23.0230528,-0.1 L26.8787664,-0.1 Z" id="Path"></path>
            <path d="M38.7772992,-0.1 L38.7772992,7.77116851 L41.609891,4.2539297 L46.0667075,4.2539297 L42.0888307,8.88602082 L46.1430843,14.2502715 L41.7935647,14.2502715 L38.7772992,10.1654246 L38.7772992,14.2502715 L34.9215856,14.2502715 L34.9215856,-0.1 L38.7772992,-0.1 Z" id="Path"></path>
            <path d="M51.4373696,4.03623321 C53.0557244,4.03623321 54.283715,4.51838139 55.1197825,5.35190954 C56.0021723,6.23161943 56.4504624,7.50600814 56.4504624,9.03440412 L56.4504624,10.135808 L50.0332811,10.135808 C50.182885,10.6064554 50.4626333,10.9503691 50.8414127,11.1844042 C51.2982616,11.4666759 51.895891,11.5903012 52.5783248,11.5903012 C53.7303971,11.5903012 54.6058919,11.3788295 55.7053488,10.733911 L55.7053488,13.5489422 C54.879891,14.1432162 53.56154,14.467968 51.9962048,14.467968 C50.2706524,14.467968 48.8257829,13.9716768 47.8183767,13.0687425 C46.8315108,12.1842185 46.2612832,10.9086869 46.2612832,9.31740955 C46.2612832,7.76914765 46.8091688,6.46089578 47.7175546,5.53370369 C48.6452773,4.58677438 49.9501036,4.03623321 51.4373696,4.03623321 Z M51.5770784,6.82682138 C51.2072287,6.82682138 50.8858601,6.94284647 50.6272106,7.16393823 C50.3903705,7.36638742 50.2064914,7.65549105 50.0830885,8.02007888 L52.975636,8.02007888 C52.9169698,7.67204293 52.7716004,7.37852207 52.5448277,7.16976734 C52.3068294,6.95067892 51.9802126,6.82682138 51.5770784,6.82682138 Z" id="Shape"></path>
            <path d="M63.848168,4.03623321 C64.3967442,4.03623321 64.8202357,4.15579053 64.9494144,4.25552289 L64.9494144,7.76408426 C64.4821156,7.49587482 63.9647379,7.39283224 63.3359024,7.39283224 C62.8587618,7.39283224 62.4581509,7.48900585 62.1545922,7.66993218 C61.8620505,7.8442922 61.6616962,8.09777254 61.5731184,8.41646821 L61.5731184,14.2502715 L57.7174048,14.2502715 L57.7174048,4.2539297 L61.5731184,4.2539297 L61.5731184,4.9562637 C62.1046776,4.39754056 62.8796536,4.03623321 63.848168,4.03623321 Z" id="Path"></path>
        </g>
    </g>
</svg>